<?xml version="1.0" encoding="UTF-8" standalone="no"?>
<svg
   id="logo_CEU"
   width="243.317"
   height="54.266529"
   viewBox="0 0 243.317 54.266529"
   version="1.1"
   sodipodi:docname="logo.svg"
   inkscape:export-filename="/home/alf/Descargas/logo.png"
   inkscape:export-xdpi="72.768402"
   inkscape:export-ydpi="72.768402"
   inkscape:version="1.1.2 (0a00cf5339, 2022-02-04)"
   xmlns:inkscape="http://www.inkscape.org/namespaces/inkscape"
   xmlns:sodipodi="http://sodipodi.sourceforge.net/DTD/sodipodi-0.dtd"
   xmlns="http://www.w3.org/2000/svg"
   xmlns:svg="http://www.w3.org/2000/svg">
  <defs
     id="defs33" />
  <sodipodi:namedview
     id="namedview31"
     pagecolor="#ffffff"
     bordercolor="#666666"
     borderopacity="1.0"
     inkscape:pageshadow="2"
     inkscape:pageopacity="0.0"
     inkscape:pagecheckerboard="true"
     showgrid="false"
     fit-margin-top="2"
     lock-margins="true"
     fit-margin-left="2"
     fit-margin-right="2"
     fit-margin-bottom="2"
     inkscape:zoom="4"
     inkscape:cx="107.875"
     inkscape:cy="90.875"
     inkscape:window-width="1920"
     inkscape:window-height="1080"
     inkscape:window-x="1920"
     inkscape:window-y="0"
     inkscape:window-maximized="1"
     inkscape:current-layer="logo_CEU" />
  <path
     id="Trazado_1"
     data-name="Trazado 1"
     d="M 52.266,27.130529 A 25.133,25.133 0 1 1 27.135,2.0005294 25.133,25.133 0 0 1 52.266,27.130529"
     fill="#c1c300" />
  <path
     id="Trazado_2"
     data-name="Trazado 2"
     d="m 2,27.129529 a 25.391,25.391 0 0 0 0.574,5.364 h 49.119 a 25.32,25.32 0 0 0 0,-10.72 H 2.574 A 25.29,25.29 0 0 0 2,27.129529"
     fill="#db000c" />
  <path
     id="Trazado_3"
     data-name="Trazado 3"
     d="m 21.77,51.686529 a 25.186,25.186 0 0 0 10.723,0 V 2.5685294 a 25.565,25.565 0 0 0 -10.723,0 z"
     fill="#00a0e5" />
  <rect
     id="Rect치ngulo_8"
     data-name="Rect치ngulo 8"
     width="10.723"
     height="10.72"
     fill="#83225c"
     x="21.768999"
     y="21.773529" />
  <path
     id="Trazado_4"
     data-name="Trazado 4"
     d="m 84.261,22.722529 h -0.974 c -0.619,-3.842 -2.93,-5.206 -6.25,-5.206 -6.053,-0.027 -8.167,5.34 -8.167,10.679 0,3.935 1.4,10.537 8.106,10.537 4.256,0 5.923,-2.479 6.835,-5.845 h 0.975 l -0.454,5.422 a 17.174,17.174 0 0 1 -7.163,1.562 c -3.645,0 -6.834,-0.745 -8.85,-2.759 -1.954,-1.954 -3.093,-5.01 -3.093,-8.819 a 12.353,12.353 0 0 1 2.96,-8.557 c 1.955,-2.179 5.178,-3.357 9.18,-3.357 a 17.179,17.179 0 0 1 6.895,1.263 z"
     fill="#474841" />
  <path
     id="Trazado_5"
     data-name="Trazado 5"
     d="m 104.146,16.863529 v 5.348 h -0.976 c -0.458,-3.4 -1.2,-4.21 -4.916,-4.21 h -3.19 c -1.04,0 -1.2,0.136 -1.2,1.176 v 7.877 h 4.555 c 2.77,0 2.9,-0.782 3.186,-2.8 h 0.98 v 6.866 h -0.98 c -0.291,-2.051 -0.416,-2.827 -3.186,-2.827 h -4.555 v 7.191 c 0,1.6 0.133,2.148 0.814,2.438 a 11.116,11.116 0 0 0 3.385,0.321 c 4.1,0 5.566,-0.52 6.313,-4.486 h 0.977 l -0.391,5.628 H 87.709 v -0.947 c 2.866,-0.2 2.932,-0.258 2.932,-2.081 v -16.474 c 0,-1.81 -0.065,-1.882 -2.932,-2.07 v -0.95 z"
     fill="#474841" />
  <path
     id="Trazado_6"
     data-name="Trazado 6"
     d="m 131.089,16.863529 v 0.95 c -2.828,0.188 -2.929,0.261 -2.929,2.07 v 11.207 a 11.623,11.623 0 0 1 -0.873,4.816 c -1.5,3.221 -4.917,3.966 -8.139,3.966 -3.193,0 -6.609,-0.781 -8.109,-3.966 a 11.914,11.914 0 0 1 -0.875,-4.759 v -11.264 c 0,-1.81 -0.066,-1.882 -2.926,-2.07 v -0.95 h 9.08 v 0.95 c -2.833,0.188 -2.933,0.261 -2.933,2.07 v 10.553 c 0,3.1 0.494,5.048 1.464,6.351 a 5.75,5.75 0 0 0 8.623,0 c 0.981,-1.3 1.467,-3.255 1.467,-6.351 v -10.553 c 0,-1.81 -0.066,-1.882 -2.926,-2.07 v -0.95 z"
     fill="#474841" />
  <g
     id="Grupo_1"
     data-name="Grupo 1"
     transform="translate(142.44,15.315529)">
    <rect
       id="Rect치ngulo_9"
       data-name="Rect치ngulo 9"
       width="0.52700001"
       height="29.285999"
       fill="#474841"
       x="0"
       y="0" />
  </g>
  <path
     id="Trazado_7"
     data-name="Trazado 7"
     d="m 161.734,15.223529 -0.11,0.455 -0.861,0.062 c -0.393,0.032 -0.533,0.25 -0.658,0.783 l -1.238,5.323 c -0.688,2.944 0.408,3.9 2.146,3.9 2.177,0 2.944,-1.675 3.429,-3.758 l 1.268,-5.464 c 0.125,-0.517 0.016,-0.737 -0.344,-0.767 l -0.924,-0.078 0.109,-0.455 h 4.289 l -0.108,0.455 -0.862,0.078 c -0.392,0.031 -0.532,0.234 -0.657,0.767 l -1.331,5.668 c -0.861,3.648 -2.818,4.1 -4.948,4.1 -2.692,0 -4.383,-1.128 -3.649,-4.244 l 1.316,-5.526 c 0.124,-0.517 0.016,-0.737 -0.346,-0.767 l -0.923,-0.078 0.11,-0.455 z"
     fill="#474841" />
  <path
     id="Trazado_8"
     data-name="Trazado 8"
     d="m 167.778,26.245529 1.642,-6.4 c 0.141,-0.5 0.141,-0.721 -0.234,-0.751 l -0.97,-0.079 0.093,-0.376 2.866,-0.438 0.076,0.078 -1.018,3.415 h 0.047 c 0.94,-1.831 2.567,-3.491 4.07,-3.491 1.285,0 1.472,1.032 1.111,2.271 l -1.222,4.1 c -0.14,0.5 -0.157,0.861 0.158,0.861 0.437,0 1.127,-1.111 1.409,-1.659 l 0.376,0.219 c -0.533,1.19 -1.408,2.255 -2.583,2.255 -0.846,0 -1.049,-0.658 -0.8,-1.534 l 1.346,-4.587 c 0.174,-0.611 0.032,-1.112 -0.516,-1.112 -1.267,0 -2.77,2.285 -3.35,3.633 a 27.64,27.64 0 0 0 -1.127,3.413 z"
     fill="#474841" />
  <path
     id="Trazado_9"
     data-name="Trazado 9"
     d="m 181.602,15.723529 a 0.968,0.968 0 0 1 -1,1.05 0.816,0.816 0 0 1 -0.86,-0.876 1,1 0 0 1 1.018,-1.035 0.793,0.793 0 0 1 0.846,0.861 m -0.767,2.474 0.079,0.078 -1.708,6.294 c -0.14,0.5 -0.155,0.861 0.157,0.861 0.439,0 1.126,-1.111 1.409,-1.659 l 0.375,0.219 c -0.532,1.19 -1.408,2.255 -2.536,2.255 -0.846,0 -1.049,-0.642 -0.814,-1.534 l 1.314,-4.9 c 0.141,-0.548 0.094,-0.69 -0.329,-0.72 l -0.893,-0.079 0.095,-0.376 z"
     fill="#474841" />
  <path
     id="Trazado_10"
     data-name="Trazado 10"
     d="m 185.609,18.194529 0.079,0.078 -1.362,6.059 c -0.173,0.751 0.109,1.1 0.5,1.1 1.283,0.047 3.3,-2.8 3.429,-4.947 a 7.075,7.075 0 0 0 -0.188,-1.957 2.3,2.3 0 0 1 1.142,-0.328 1.605,1.605 0 0 1 0.487,1.221 8.776,8.776 0 0 1 -1.833,4.118 c -1.08,1.457 -2.442,2.709 -3.788,2.709 -0.892,0 -1.395,-0.626 -1.081,-2.051 l 0.956,-4.352 c 0.108,-0.517 0.125,-0.722 -0.236,-0.752 l -0.971,-0.079 0.093,-0.376 z"
     fill="#474841" />
  <path
     id="Trazado_11"
     data-name="Trazado 11"
     d="m 195.225,19.669529 a 0.867,0.867 0 0 0 -0.908,-0.923 c -1.252,0 -2.427,1.879 -2.693,3.773 2.646,-0.563 3.6,-1.752 3.6,-2.849 m 0.72,4.338 a 4.136,4.136 0 0 1 -3.585,2.238 c -0.908,0 -2.334,-0.376 -2.334,-2.568 a 5.967,5.967 0 0 1 1.3,-3.7 4.384,4.384 0 0 1 3.43,-1.784 c 1.283,0 1.941,0.736 1.941,1.566 a 2.009,2.009 0 0 1 -0.658,1.5 c -0.674,0.626 -1.817,1.251 -4.446,1.784 a 1.483,1.483 0 0 0 -0.016,0.25 c 0,1.237 0.329,2.176 1.424,2.176 1.174,0 2.02,-1.049 2.584,-1.784 z"
     fill="#474841" />
  <path
     id="Trazado_12"
     data-name="Trazado 12"
     d="m 197.495,26.245529 1.441,-6.4 c 0.108,-0.5 0.14,-0.721 -0.236,-0.751 l -0.972,-0.079 0.1,-0.376 2.691,-0.438 0.08,0.078 -0.705,2.6 h 0.031 c 0.846,-1.69 1.925,-2.677 2.8,-2.677 0.5,0 0.719,0.265 0.7,0.689 0,0.454 -0.343,0.971 -0.736,0.971 -0.5,0 -0.609,-0.391 -1.094,-0.391 -0.6,0 -1.377,1.345 -1.941,3.4 -0.251,0.907 -0.549,2.176 -0.815,3.194 z"
     fill="#474841" />
  <path
     id="Trazado_13"
     data-name="Trazado 13"
     d="m 208.921,19.419529 a 0.741,0.741 0 0 1 -0.75,0.721 0.443,0.443 0 0 1 -0.439,-0.313 c -0.33,-0.736 -0.736,-1.081 -1.253,-1.081 a 1,1 0 0 0 -0.971,1.019 c 0,0.438 0.173,0.954 1.112,1.721 a 3.016,3.016 0 0 1 1.44,2.4 2.451,2.451 0 0 1 -2.709,2.364 c -1.489,0 -2.348,-0.815 -2.348,-1.487 a 0.845,0.845 0 0 1 0.814,-0.846 c 0.266,0 0.407,0.173 0.5,0.469 a 1.626,1.626 0 0 0 1.408,1.315 1.081,1.081 0 0 0 1.128,-1.174 2.528,2.528 0 0 0 -1.08,-1.832 3.016,3.016 0 0 1 -1.378,-2.193 2.314,2.314 0 0 1 2.536,-2.3 c 1.394,0 1.989,0.736 1.989,1.221"
     fill="#474841" />
  <path
     id="Trazado_14"
     data-name="Trazado 14"
     d="m 213.934,15.723529 a 0.967,0.967 0 0 1 -1,1.05 0.817,0.817 0 0 1 -0.862,-0.876 1,1 0 0 1 1.017,-1.035 0.793,0.793 0 0 1 0.846,0.861 m -0.768,2.474 0.08,0.078 -1.708,6.294 c -0.141,0.5 -0.156,0.861 0.156,0.861 0.439,0 1.128,-1.111 1.409,-1.659 l 0.377,0.219 c -0.533,1.19 -1.41,2.255 -2.537,2.255 -0.846,0 -1.05,-0.642 -0.814,-1.534 l 1.314,-4.9 c 0.14,-0.548 0.094,-0.69 -0.329,-0.72 l -0.892,-0.079 0.092,-0.376 z"
     fill="#474841" />
  <path
     id="Trazado_15"
     data-name="Trazado 15"
     d="m 216.673,25.431529 c 0.831,0 1.864,-1.173 2.616,-2.395 a 12.446,12.446 0 0 0 1.55,-3.978 1.713,1.713 0 0 0 -1.081,-0.313 c -2.5,0 -3.866,3.867 -3.866,5.558 0,0.7 0.281,1.127 0.781,1.127 m 6.593,-10.99 0.078,0.078 -2.473,10.052 c -0.125,0.5 -0.157,0.861 0.156,0.861 0.439,0 1.128,-1.111 1.41,-1.659 l 0.376,0.219 c -0.532,1.19 -1.409,2.255 -2.554,2.255 -0.8,0.016 -1.033,-0.626 -0.719,-1.739 l 0.516,-1.862 h -0.031 c -0.924,1.675 -2.318,3.6 -4.118,3.6 -1.27,0 -1.565,-1.049 -1.565,-2.067 0,-1.894 1.674,-5.981 5.322,-5.981 a 2.984,2.984 0 0 1 1.315,0.266 l 0.032,-0.031 0.594,-2.522 c 0.126,-0.5 0.1,-0.61 -0.281,-0.641 l -0.94,-0.094 0.094,-0.36 z"
     fill="#474841" />
  <path
     id="Trazado_16"
     data-name="Trazado 16"
     d="m 228.98,18.746529 c -2.458,0 -3.992,3.867 -3.992,5.59 0,0.61 0.172,1.1 0.688,1.1 0.752,0 1.706,-1.049 2.583,-2.38 a 13.232,13.232 0 0 0 1.681,-3.962 1.4,1.4 0 0 0 -0.956,-0.345 m 2.505,-0.423 -1.66,6.247 c -0.142,0.5 -0.157,0.861 0.157,0.861 0.438,0 1.127,-1.111 1.41,-1.659 l 0.375,0.219 c -0.532,1.19 -1.409,2.255 -2.6,2.255 -0.845,0 -1.017,-0.642 -0.689,-1.754 l 0.533,-1.785 h -0.032 c -0.908,1.6 -2.364,3.539 -4.039,3.539 -1.065,0 -1.5,-0.924 -1.5,-1.864 0,-2.067 1.785,-6.184 5.51,-6.184 a 2.135,2.135 0 0 1 1.142,0.329 l 0.08,-0.2 z"
     fill="#474841" />
  <path
     id="Trazado_17"
     data-name="Trazado 17"
     d="m 234.647,25.431529 c 0.83,0 1.863,-1.173 2.614,-2.395 a 12.42,12.42 0 0 0 1.55,-3.978 1.708,1.708 0 0 0 -1.079,-0.313 c -2.506,0 -3.868,3.867 -3.868,5.558 0,0.7 0.282,1.127 0.783,1.127 m 6.592,-10.99 0.078,0.078 -2.474,10.052 c -0.124,0.5 -0.156,0.861 0.157,0.861 0.438,0 1.126,-1.111 1.409,-1.659 l 0.375,0.219 c -0.532,1.19 -1.409,2.255 -2.551,2.255 -0.8,0.016 -1.034,-0.626 -0.721,-1.739 l 0.517,-1.862 h -0.031 c -0.924,1.675 -2.317,3.6 -4.118,3.6 -1.268,0 -1.565,-1.049 -1.565,-2.067 0,-1.894 1.675,-5.981 5.323,-5.981 a 2.994,2.994 0 0 1 1.315,0.266 l 0.032,-0.031 0.595,-2.522 c 0.126,-0.5 0.093,-0.61 -0.282,-0.641 l -0.94,-0.094 0.094,-0.36 z"
     fill="#474841" />
  <path
     id="Trazado_18"
     data-name="Trazado 18"
     d="m 162.53,34.798529 c 0.188,-1.612 -0.391,-2.443 -1.894,-2.443 a 1.987,1.987 0 0 0 -2.176,1.99 c 0,1.189 1.112,1.721 2.02,2.192 1.581,0.813 2.348,1.705 2.348,3.115 0,1.675 -0.924,3.429 -3.962,3.461 a 4.494,4.494 0 0 1 -3.27,-1.284 l 0.407,-2.395 h 0.453 c -0.093,2.082 1.159,3.13 2.6,3.13 a 2.243,2.243 0 0 0 2.363,-2.27 c 0,-1.251 -0.751,-1.909 -2,-2.536 -1.267,-0.61 -2.27,-1.378 -2.27,-2.849 0,-1.315 0.861,-3.1 3.6,-3.1 a 4.886,4.886 0 0 1 2.8,0.8 l -0.563,2.192 z"
     fill="#474841" />
  <path
     id="Trazado_19"
     data-name="Trazado 19"
     d="m 169.437,35.565529 c -2.457,0 -3.993,3.867 -3.993,5.59 0,0.61 0.172,1.1 0.689,1.1 0.753,0 1.706,-1.05 2.583,-2.38 a 13.216,13.216 0 0 0 1.676,-3.961 1.4,1.4 0 0 0 -0.955,-0.344 m 2.505,-0.423 -1.66,6.248 c -0.14,0.5 -0.156,0.861 0.157,0.861 0.439,0 1.128,-1.113 1.41,-1.661 l 0.376,0.22 c -0.533,1.19 -1.409,2.255 -2.6,2.255 -0.847,0 -1.017,-0.642 -0.69,-1.754 l 0.534,-1.784 h -0.032 c -0.908,1.6 -2.364,3.538 -4.039,3.538 -1.065,0 -1.5,-0.923 -1.5,-1.864 0,-2.066 1.785,-6.183 5.512,-6.183 a 2.143,2.143 0 0 1 1.142,0.328 l 0.079,-0.2 z"
     fill="#474841" />
  <path
     id="Trazado_20"
     data-name="Trazado 20"
     d="m 173.178,43.065529 1.644,-6.4 c 0.141,-0.5 0.141,-0.72 -0.235,-0.751 l -0.971,-0.077 0.094,-0.377 2.865,-0.437 0.078,0.078 -1.016,3.412 h 0.046 c 0.94,-1.831 2.568,-3.491 4.07,-3.491 1.284,0 1.472,1.031 1.111,2.269 l -1.221,4.1 c -0.14,0.5 -0.157,0.86 0.156,0.86 0.439,0 1.128,-1.111 1.41,-1.659 l 0.375,0.219 c -0.532,1.191 -1.41,2.255 -2.582,2.255 -0.847,0 -1.049,-0.657 -0.8,-1.534 l 1.346,-4.589 c 0.173,-0.61 0.032,-1.11 -0.516,-1.11 -1.268,0 -2.771,2.286 -3.35,3.631 a 28.139,28.139 0 0 0 -1.128,3.413 z"
     fill="#474841" />
  <path
     id="Trazado_21"
     data-name="Trazado 21"
     d="m 189.548,37.286529 c -0.109,0.5 -0.14,0.658 0.94,0.658 2.114,0 3.366,-1.064 3.366,-3.3 0,-1.331 -0.8,-2.052 -2.347,-2.052 -0.8,0 -0.908,0.142 -1,0.549 z m -4.086,5.591 0.094,-0.454 0.862,-0.094 c 0.375,-0.033 0.532,-0.22 0.657,-0.752 l 1.878,-8.236 c 0.126,-0.515 0.016,-0.735 -0.343,-0.766 l -0.923,-0.078 0.109,-0.454 h 3.662 a 5.717,5.717 0 0 1 2.772,0.564 2.566,2.566 0 0 1 1.268,2.316 3.269,3.269 0 0 1 -1.582,2.835 6.806,6.806 0 0 1 -3.475,0.736 h -1.153 l -0.706,3.084 c -0.109,0.5 -0.031,0.719 0.345,0.752 l 1.08,0.094 -0.093,0.454 z"
     fill="#474841" />
  <path
     id="Trazado_22"
     data-name="Trazado 22"
     d="m 200.659,35.565529 c -2.457,0 -3.991,3.867 -3.991,5.59 0,0.61 0.172,1.1 0.688,1.1 0.752,0 1.706,-1.05 2.583,-2.38 a 13.214,13.214 0 0 0 1.675,-3.961 1.4,1.4 0 0 0 -0.955,-0.344 m 2.506,-0.423 -1.66,6.248 c -0.141,0.5 -0.157,0.861 0.157,0.861 0.439,0 1.128,-1.113 1.41,-1.661 l 0.375,0.22 c -0.533,1.19 -1.408,2.255 -2.6,2.255 -0.846,0 -1.018,-0.642 -0.689,-1.754 l 0.533,-1.784 h -0.032 c -0.907,1.6 -2.363,3.538 -4.039,3.538 -1.065,0 -1.5,-0.923 -1.5,-1.864 0,-2.066 1.785,-6.183 5.51,-6.183 a 2.13,2.13 0 0 1 1.142,0.328 l 0.081,-0.2 z"
     fill="#474841" />
  <path
     id="Trazado_23"
     data-name="Trazado 23"
     d="m 209.753,35.832529 c -0.972,0 -2.146,1.346 -2.85,2.6 a 6.331,6.331 0 0 0 -0.829,2.74 1.241,1.241 0 0 0 1.283,1.347 c 2.3,0 3.24,-4.259 3.24,-5.386 0,-0.892 -0.266,-1.3 -0.844,-1.3 m -3.272,2.41 h 0.031 c 1.205,-2.145 2.756,-3.224 3.944,-3.224 1.16,0 1.677,0.814 1.677,1.972 a 7.711,7.711 0 0 1 -1.033,3.476 4.589,4.589 0 0 1 -3.93,2.6 2.1,2.1 0 0 1 -1.972,-1.1 l -0.486,0.909 h -0.564 l 2.3,-10 c 0.14,-0.611 0.078,-0.72 -0.314,-0.767 l -0.892,-0.109 0.093,-0.36 2.8,-0.375 0.077,0.078 z"
     fill="#474841" />
  <path
     id="Trazado_24"
     data-name="Trazado 24"
     d="m 217.267,31.260529 0.078,0.078 -2.521,10.067 c -0.125,0.517 -0.125,0.845 0.156,0.845 0.375,0 1.081,-0.954 1.441,-1.659 l 0.376,0.219 c -0.5,1.175 -1.457,2.255 -2.552,2.255 -0.846,0 -1.033,-0.642 -0.814,-1.534 l 2.145,-8.659 c 0.156,-0.611 0.078,-0.72 -0.313,-0.767 l -0.893,-0.109 0.1,-0.36 z"
     fill="#474841" />
  <path
     id="Trazado_25"
     data-name="Trazado 25"
     d="m 219.239,40.857529 c 0,1.111 0.5,1.66 1.41,1.66 2.145,0 2.958,-4.2 2.958,-5.308 0,-0.971 -0.344,-1.644 -1.3,-1.644 -2.068,0 -3.07,3.6 -3.07,5.292 m 5.888,-3.1 a 6.553,6.553 0 0 1 -0.986,3.3 3.981,3.981 0 0 1 -3.54,2 2.592,2.592 0 0 1 -2.88,-2.834 c 0,-1.347 0.892,-5.213 4.6,-5.213 a 2.543,2.543 0 0 1 2.8,2.739"
     fill="#474841" />
</svg>
